<svg xmlns="http://www.w3.org/2000/svg" viewBox="0 0 100 100" width="100" height="100" role="img" aria-label="mitbringen app icon">
  <defs>
    <linearGradient id="tile" x1="0.12" y1="0" x2="0.88" y2="1">
      <stop offset="0" stop-color="#2f6bff"></stop>
      <stop offset="1" stop-color="#1748d8"></stop>
    </linearGradient>
  </defs>
  <rect width="100" height="100" rx="24" fill="url(#tile)"></rect>
  <g transform="translate(18,18) scale(0.64)" fill="none">
    <path d="M58 44C52 41 49 34 51 27c5 3 9 10 9 17" fill="#c4ec5a"></path>
    <path d="M35 44a15 12 0 0 1 30 0" stroke="#fff" stroke-width="5" stroke-linecap="round"></path>
    <path d="M23 44h54l-5.4 36A6 6 0 0 1 65.7 85H34.3A6 6 0 0 1 28.4 80L23 44Z" fill="#fff"></path>
    <circle cx="64" cy="74" r="13" fill="#2fc46f"></circle>
    <path d="M58 74l4 4 8-8.5" stroke="#fff" stroke-width="4.4" stroke-linecap="round" stroke-linejoin="round"></path>
  </g>
</svg>