<svg xmlns="http://www.w3.org/2000/svg" viewBox="0 0 48 48" width="48" height="48">
  <path d="M24 14c-3-3-9-3-12 1-3 4-2 13 2 19 2 3 4 4 6 4 1 0 2-1 4-1s3 1 4 1c2 0 4-1 6-4 4-6 5-15 2-19-3-4-9-4-12-1z" fill="#2461ff" stroke="#1b1b1f" stroke-width="2.4" stroke-linejoin="round"></path><path d="M24 14c0-4 2-7 6-8" fill="none" stroke="#1b1b1f" stroke-width="2.4" stroke-linecap="round"></path><path d="M24 14c1-3 4-5 7-4" fill="#fff" stroke="#1b1b1f" stroke-width="2" stroke-linejoin="round"></path>
</svg>