<svg xmlns="http://www.w3.org/2000/svg" viewBox="0 0 48 48" width="48" height="48">
  <path d="M9 24c5-8 16-11 24-7 3 1 5 3 6 5-1 2-3 4-6 5-8 4-19 1-24-3z" fill="#2461ff" stroke="#1b1b1f" stroke-width="2.4" stroke-linejoin="round"></path><path d="M9 24c-3-2-6-2-7-5 4 0 5 2 7 5zm0 0c-3 2-6 2-7 5 4 0 5-2 7-5z" fill="#2461ff" stroke="#1b1b1f" stroke-width="2.2" stroke-linejoin="round"></path><circle cx="32" cy="22" r="2" fill="#fff"></circle><path d="M22 19c2 3 2 7 0 10" fill="none" stroke="#fff" stroke-width="1.8"></path>
</svg>