<svg xmlns="http://www.w3.org/2000/svg" viewBox="0 0 48 48" width="48" height="48">
  <path d="M24 18c6 0 9 5 9 12s-3 11-9 11-9-4-9-11 3-12 9-12z" fill="#2461ff" stroke="#1b1b1f" stroke-width="2.4" stroke-linejoin="round"></path><path d="M19 24l10 14M29 24 19 38M16 30h16" stroke="#1b1b1f" stroke-width="1.6"></path><path d="M24 18c-2-4-1-8 0-11 1 3 2 7 0 11zm0 0c-4-2-7-1-10 0 3 2 6 3 10 0zm0 0c4-2 7-1 10 0-3 2-6 3-10 0z" fill="#fff" stroke="#1b1b1f" stroke-width="1.8" stroke-linejoin="round"></path>
</svg>