<svg xmlns="http://www.w3.org/2000/svg" viewBox="0 0 48 48" width="48" height="48">
  <path d="M34 12c-12 0-22 8-22 18 0 5 4 9 9 9 7 0 11-5 11-11 0-4-3-6-6-6-2 0-4 1-4 3" fill="none" stroke="#1b1b1f" stroke-width="2.6" stroke-linecap="round" stroke-linejoin="round"></path><path d="M34 12c-11 0-20 7-21 16 6 1 13-2 17-7 3-4 4-7 4-9z" fill="#2461ff" stroke="#1b1b1f" stroke-width="2.2" stroke-linejoin="round"></path><path d="M34 12c2-2 5-2 6 0M34 12c1-2 0-4-2-5" stroke="#1b1b1f" stroke-width="2.2" stroke-linecap="round"></path>
</svg>