<svg xmlns="http://www.w3.org/2000/svg" viewBox="0 0 48 48" width="48" height="48">
  <path d="M24 14c7 0 14 4 14 11 0 8-9 16-14 16s-14-8-14-16c0-7 7-11 14-11z" fill="#2461ff" stroke="#1b1b1f" stroke-width="2.4" stroke-linejoin="round"></path><path d="M16 12c2 2 5 3 8 3s6-1 8-3c-1 3-4 5-8 5s-7-2-8-5z" fill="#fff" stroke="#1b1b1f" stroke-width="2" stroke-linejoin="round"></path><g fill="#fff"><circle cx="20" cy="26" r="1.1"></circle><circle cx="28" cy="26" r="1.1"></circle><circle cx="24" cy="31" r="1.1"></circle><circle cx="18" cy="32" r="1.1"></circle><circle cx="30" cy="32" r="1.1"></circle></g>
</svg>